<?xml version="1.0" encoding="UTF-8" standalone="no"?>
<svg
   xmlns:dc="http://purl.org/dc/elements/1.1/"
   xmlns:cc="http://creativecommons.org/ns#"
   xmlns:rdf="http://www.w3.org/1999/02/22-rdf-syntax-ns#"
   xmlns:svg="http://www.w3.org/2000/svg"
   xmlns="http://www.w3.org/2000/svg"
   xmlns:sodipodi="http://sodipodi.sourceforge.net/DTD/sodipodi-0.dtd"
   xmlns:inkscape="http://www.inkscape.org/namespaces/inkscape"
   fill="#000000"
   height="24"
   viewBox="0 0 24 24"
   width="24"
   id="svg3908"
   version="1.1"
   inkscape:version="0.48.5 r10040"
   sodipodi:docname="ic_call_black_24px.svg">
  <metadata
     id="metadata3918">
    <rdf:RDF>
      <cc:Work
         rdf:about="">
        <dc:format>image/svg+xml</dc:format>
        <dc:type
           rdf:resource="http://purl.org/dc/dcmitype/StillImage" />
        <dc:title></dc:title>
      </cc:Work>
    </rdf:RDF>
  </metadata>
  <defs
     id="defs3916" />
  <sodipodi:namedview
     pagecolor="#ffffff"
     bordercolor="#666666"
     borderopacity="1"
     objecttolerance="10"
     gridtolerance="10"
     guidetolerance="10"
     inkscape:pageopacity="0"
     inkscape:pageshadow="2"
     inkscape:window-width="1024"
     inkscape:window-height="702"
     id="namedview3914"
     showgrid="false"
     inkscape:zoom="2.8284271"
     inkscape:cx="38.46072"
     inkscape:cy="97.270571"
     inkscape:window-x="0"
     inkscape:window-y="27"
     inkscape:window-maximized="1"
     inkscape:current-layer="svg3908" />
  <path
     d="M0 0h24v24H0z"
     fill="none"
     id="path3910" />
  <g
     id="g3961"
     inkscape:export-filename="/home/eduardo/Abacomm/BitBucket/grt_android/ExercicioAula3/app/src/main/res/drawable-xxhdpi/ic_phone.png"
     inkscape:export-xdpi="270"
     inkscape:export-ydpi="270">
    <rect
       y="-1.5254229"
       x="-29.161016"
       height="24"
       width="24"
       id="rect3920"
       style="fill:none;stroke:none" />
    <path
       inkscape:connector-curvature="0"
       id="path3912"
       d="m -22.541017,9.2645771 c 1.44,2.8299999 3.76,5.1399999 6.59,6.5899999 l 2.2,-2.2 c 0.27,-0.27 0.67,-0.36 1.02,-0.24 1.12,0.37 2.33,0.57 3.5699999,0.57 0.55,0 1,0.45 1,1 v 3.49 c 0,0.55 -0.45,1 -1,1 -9.3899999,0 -16.9999999,-7.61 -16.9999999,-16.9999999 0,-0.55 0.45,-1 1,-1 h 3.5 c 0.55,0 1,0.45 1,1 0,1.25 0.2,2.45 0.57,3.57 0.11,0.35 0.03,0.74 -0.25,1.02 l -2.2,2.2 z" />
  </g>
  <g
     id="g3965"
     inkscape:export-filename="/home/eduardo/Abacomm/BitBucket/grt_android/ExercicioAula3/app/src/main/res/drawable-xxhdpi/ic_phone_on.png"
     inkscape:export-xdpi="270"
     inkscape:export-ydpi="270">
    <rect
       y="15.966102"
       x="1.1186439"
       height="24"
       width="24"
       id="rect3920-3"
       style="fill:none;stroke:none" />
    <path
       style="fill:#ff6600;fill-opacity:1"
       inkscape:connector-curvature="0"
       id="path3912-27"
       d="m 7.7386431,26.756102 c 1.4400005,2.83 3.7599999,5.14 6.5899999,6.59 l 2.2,-2.2 c 0.27,-0.27 0.67,-0.36 1.02,-0.24 1.12,0.37 2.33,0.57 3.57,0.57 0.55,0 1,0.45 1,1 v 3.49 c 0,0.55 -0.45,1 -1,1 -9.39,0 -16.9999999,-7.61 -16.9999999,-17 0,-0.55 0.45,-1 1,-1 h 3.5000005 c 0.55,0 1,0.45 1,1 0,1.25 0.2,2.45 0.5700004,3.57 0.11,0.35 0.03,0.74 -0.2500004,1.02 l -2.2000005,2.2 z" />
  </g>
  <path
     style="fill:#ff0000;stroke:none"
     d="m 30.393687,-84.318019 0,5 2,0 0,-3 2.999999,0 0,-2 -4.999999,0 z m 24.999999,0 0,2 3,0 0,3 2,0 0,-5 -5,0 z m -24.999999,25 0,5 4.999999,0 0,-2 -2.999999,0 0,-3 -2,0 z m 27.999999,0 0,3 -3,0 0,2 5,0 0,-5 -2,0 z"
     id="rect3969"
     inkscape:connector-curvature="0"
     inkscape:export-filename="/home/eduardo/Abacomm/BitBucket/grt_android/ExercicioAula3/app/src/main/res/drawable-hdpi/bkg_edit.9.png"
     inkscape:export-xdpi="135"
     inkscape:export-ydpi="135" />
</svg>
