<?xml version="1.0" encoding="UTF-8" standalone="no"?>
<svg
   xmlns:dc="http://purl.org/dc/elements/1.1/"
   xmlns:cc="http://creativecommons.org/ns#"
   xmlns:rdf="http://www.w3.org/1999/02/22-rdf-syntax-ns#"
   xmlns:svg="http://www.w3.org/2000/svg"
   xmlns="http://www.w3.org/2000/svg"
   xmlns:sodipodi="http://sodipodi.sourceforge.net/DTD/sodipodi-0.dtd"
   xmlns:inkscape="http://www.inkscape.org/namespaces/inkscape"
   fill="#000000"
   height="24"
   viewBox="0 0 24 24"
   width="24"
   id="svg3047"
   version="1.1"
   inkscape:version="0.48.5 r10040"
   sodipodi:docname="ic_lock_black_24px.svg">
  <metadata
     id="metadata3057">
    <rdf:RDF>
      <cc:Work
         rdf:about="">
        <dc:format>image/svg+xml</dc:format>
        <dc:type
           rdf:resource="http://purl.org/dc/dcmitype/StillImage" />
        <dc:title></dc:title>
      </cc:Work>
    </rdf:RDF>
  </metadata>
  <defs
     id="defs3055" />
  <sodipodi:namedview
     pagecolor="#ffffff"
     bordercolor="#666666"
     borderopacity="1"
     objecttolerance="10"
     gridtolerance="10"
     guidetolerance="10"
     inkscape:pageopacity="0"
     inkscape:pageshadow="2"
     inkscape:window-width="1024"
     inkscape:window-height="702"
     id="namedview3053"
     showgrid="false"
     inkscape:zoom="6.8059028"
     inkscape:cx="24.613306"
     inkscape:cy="29.202153"
     inkscape:window-x="0"
     inkscape:window-y="27"
     inkscape:window-maximized="1"
     inkscape:current-layer="svg3047" />
  <path
     d="M0 0h24v24H0z"
     fill="none"
     id="path3049" />
  <g
     id="g3854"
     transform="translate(-18.954135,-22.921279)"
     inkscape:export-filename="/home/eduardo/Abacomm/BitBucket/grt_android/ExercicioAula3/app/src/main/res/drawable-xxhdpi/ic_password.png"
     inkscape:export-xdpi="269.99997"
     inkscape:export-ydpi="269.99997">
    <rect
       y="-6.6898413"
       x="27.173243"
       height="24"
       width="24"
       id="rect3059"
       style="fill:none;stroke:none" />
    <path
       sodipodi:nodetypes="scssscssssssssccsssc"
       inkscape:connector-curvature="0"
       id="path3051"
       d="m 45.173243,1.8101587 -1,0 0,-1.99999997 c 0,-2.76000003 -2.24,-5.00000003 -5,-5.00000003 -2.76,0 -5,2.24 -5,5.00000003 l 0,1.99999997 -1,0 c -1.1,0 -2,0.9 -2,2 l 0,10.0000003 c 0,1.1 0.9,2 2,2 l 12,0 c 1.1,0 2,-0.9 2,-2 l 0,-10.0000003 c 0,-1.1 -0.9,-2 -2,-2 z m -2.9,0 -6.2,0 0,-1.99999997 c 0,-1.71000003 1.39,-3.10000003 3.1,-3.10000003 1.71,0 3.1,1.39 3.1,3.10000003 z" />
  </g>
  <g
     id="g3850"
     inkscape:export-filename="/home/eduardo/Abacomm/BitBucket/grt_android/ExercicioAula3/app/src/main/res/drawable-xxhdpi/ic_password_on.png"
     inkscape:export-xdpi="269.99997"
     inkscape:export-ydpi="269.99997">
    <rect
       y="-21.794195"
       x="-28.309372"
       height="24"
       width="24"
       id="rect3059-6"
       style="fill:none;fill-rule:evenodd;stroke:none" />
    <path
       style="fill:#ff6600"
       sodipodi:nodetypes="scssscssssssssccsssc"
       inkscape:connector-curvature="0"
       id="path3051-8"
       d="m -10.309372,-13.294194 -1,0 0,-2 c 0,-2.76 -2.24,-5 -5,-5 -2.76,0 -5,2.24 -5,5 l 0,2 -1,0 c -1.1,0 -2,0.9 -2,2 l 0,9.9999997 c 0,1.10000001 0.9,2.00000001 2,2.00000001 l 12,0 c 1.0999999,0 1.9999999,-0.9 1.9999999,-2.00000001 l 0,-9.9999997 c 0,-1.1 -0.9,-2 -1.9999999,-2 z m -2.9,0 -6.2,0 0,-2 c 0,-1.71 1.39,-3.1 3.1,-3.1 1.71,0 3.1,1.39 3.1,3.1 z" />
  </g>
</svg>
